<svg xmlns="http://www.w3.org/2000/svg" viewBox="0 0 1200 700" font-family="'Segoe UI', Arial, sans-serif">

  <rect width="1200" height="700" fill="#ffffff"/>

  <text x="600" y="45" text-anchor="middle" font-size="22" font-weight="bold" fill="#000000">GenAIOps Quality Gate Enforcement Flow</text>
  <text x="600" y="70" text-anchor="middle" font-size="13" fill="#555555">Cloud-native Reference Architecture — EU AI Act Compliance as Code</text>

  <text x="200" y="110" text-anchor="middle" font-size="12" font-weight="bold" fill="#000000" letter-spacing="2">PRE-DEPLOYMENT</text>
  <text x="530" y="110" text-anchor="middle" font-size="12" font-weight="bold" fill="#000000" letter-spacing="2">DEPLOYMENT</text>
  <text x="920" y="110" text-anchor="middle" font-size="12" font-weight="bold" fill="#000000" letter-spacing="2">OPERATIONS</text>

  <line x1="380" y1="95" x2="380" y2="520" stroke="#cccccc" stroke-width="1" stroke-dasharray="6,4"/>
  <line x1="720" y1="95" x2="720" y2="520" stroke="#cccccc" stroke-width="1" stroke-dasharray="6,4"/>

  <rect x="40" y="140" width="130" height="55" rx="8" fill="#ffffff" stroke="#000000" stroke-width="2"/>
  <text x="105" y="163" text-anchor="middle" font-size="13" font-weight="bold" fill="#000000">Git Push</text>
  <text x="105" y="181" text-anchor="middle" font-size="10" fill="#555555">Developer</text>

  <line x1="170" y1="167" x2="210" y2="167" stroke="#000000" stroke-width="2" marker-end="url(#arrowhead)"/>

  <rect x="210" y="140" width="150" height="55" rx="8" fill="#ffffff" stroke="#000000" stroke-width="2"/>
  <text x="285" y="163" text-anchor="middle" font-size="13" font-weight="bold" fill="#000000">CI/CD Pipeline</text>
  <text x="285" y="181" text-anchor="middle" font-size="10" fill="#555555">GitHub Actions</text>

  <line x1="360" y1="167" x2="400" y2="167" stroke="#000000" stroke-width="2" marker-end="url(#arrowhead)"/>

  <rect x="400" y="140" width="140" height="55" rx="8" fill="#ffffff" stroke="#000000" stroke-width="2"/>
  <text x="470" y="163" text-anchor="middle" font-size="13" font-weight="bold" fill="#000000">ArgoCD</text>
  <text x="470" y="181" text-anchor="middle" font-size="10" fill="#555555">GitOps Manual-Sync</text>

  <line x1="540" y1="167" x2="580" y2="167" stroke="#000000" stroke-width="2" marker-end="url(#arrowhead)"/>

  <rect x="580" y="140" width="160" height="55" rx="8" fill="#ffffff" stroke="#000000" stroke-width="2"/>
  <text x="660" y="163" text-anchor="middle" font-size="13" font-weight="bold" fill="#000000">Kubernetes</text>
  <text x="660" y="181" text-anchor="middle" font-size="10" fill="#555555">API-Server + Gatekeeper</text>

  <line x1="740" y1="167" x2="780" y2="167" stroke="#000000" stroke-width="2" marker-end="url(#arrowhead)"/>

  <rect x="780" y="140" width="140" height="55" rx="8" fill="#ffffff" stroke="#000000" stroke-width="2"/>
  <text x="850" y="163" text-anchor="middle" font-size="13" font-weight="bold" fill="#000000">App Pod</text>
  <text x="850" y="181" text-anchor="middle" font-size="10" fill="#555555">Ambient AI Scribe</text>

  <line x1="920" y1="167" x2="960" y2="167" stroke="#000000" stroke-width="2" marker-end="url(#arrowhead)"/>

  <rect x="960" y="140" width="140" height="55" rx="8" fill="#ffffff" stroke="#000000" stroke-width="2"/>
  <text x="1030" y="163" text-anchor="middle" font-size="13" font-weight="bold" fill="#000000">Monitoring</text>
  <text x="1030" y="181" text-anchor="middle" font-size="10" fill="#555555">Prometheus + Grafana</text>

  <rect x="60" y="250" width="120" height="65" rx="4" fill="#f5f5f5" stroke="#000000" stroke-width="1.5"/>
  <text x="120" y="272" text-anchor="middle" font-size="11" font-weight="bold" fill="#000000">G-PRE-01</text>
  <text x="120" y="288" text-anchor="middle" font-size="9" fill="#555555">Risiko-Klassifikation</text>
  <rect x="75" y="298" width="90" height="14" rx="3" fill="#000000"/>
  <text x="120" y="309" text-anchor="middle" font-size="8" font-weight="bold" fill="#ffffff">HYBRID</text>

  <rect x="200" y="250" width="120" height="65" rx="4" fill="#f5f5f5" stroke="#000000" stroke-width="1.5"/>
  <text x="260" y="272" text-anchor="middle" font-size="11" font-weight="bold" fill="#000000">G-PRE-04</text>
  <text x="260" y="288" text-anchor="middle" font-size="9" fill="#555555">Security-Baseline</text>
  <rect x="215" y="298" width="90" height="14" rx="3" fill="#555555"/>
  <text x="260" y="309" text-anchor="middle" font-size="8" font-weight="bold" fill="#ffffff">AUTO</text>

  <rect x="340" y="250" width="120" height="65" rx="4" fill="#f5f5f5" stroke="#000000" stroke-width="1.5"/>
  <text x="400" y="272" text-anchor="middle" font-size="11" font-weight="bold" fill="#000000">G-PRE-05</text>
  <text x="400" y="288" text-anchor="middle" font-size="9" fill="#555555">Strateg. Freigabe</text>
  <rect x="355" y="298" width="90" height="14" rx="3" fill="#000000"/>
  <text x="400" y="309" text-anchor="middle" font-size="8" font-weight="bold" fill="#ffffff">HYBRID</text>

  <rect x="490" y="250" width="120" height="65" rx="4" fill="#f5f5f5" stroke="#000000" stroke-width="1.5"/>
  <text x="550" y="272" text-anchor="middle" font-size="11" font-weight="bold" fill="#000000">G-DEP-02</text>
  <text x="550" y="288" text-anchor="middle" font-size="9" fill="#555555">Safety-Metriken</text>
  <rect x="505" y="298" width="90" height="14" rx="3" fill="#555555"/>
  <text x="550" y="309" text-anchor="middle" font-size="8" font-weight="bold" fill="#ffffff">AUTO</text>

  <rect x="790" y="250" width="120" height="65" rx="4" fill="#f5f5f5" stroke="#000000" stroke-width="1.5"/>
  <text x="850" y="272" text-anchor="middle" font-size="11" font-weight="bold" fill="#000000">G-OPS-03</text>
  <text x="850" y="288" text-anchor="middle" font-size="9" fill="#555555">Performance / Drift</text>
  <rect x="805" y="298" width="90" height="14" rx="3" fill="#555555"/>
  <text x="850" y="309" text-anchor="middle" font-size="8" font-weight="bold" fill="#ffffff">AUTO</text>

  <rect x="930" y="250" width="120" height="65" rx="4" fill="#f5f5f5" stroke="#000000" stroke-width="1.5"/>
  <text x="990" y="272" text-anchor="middle" font-size="11" font-weight="bold" fill="#000000">G-OPS-05</text>
  <text x="990" y="288" text-anchor="middle" font-size="9" fill="#555555">Evidence Complete</text>
  <rect x="945" y="298" width="90" height="14" rx="3" fill="#555555"/>
  <text x="990" y="309" text-anchor="middle" font-size="8" font-weight="bold" fill="#ffffff">AUTO</text>

  <line x1="285" y1="195" x2="120" y2="250" stroke="#000000" stroke-width="1" stroke-dasharray="4,3"/>
  <line x1="285" y1="195" x2="260" y2="250" stroke="#000000" stroke-width="1" stroke-dasharray="4,3"/>
  <line x1="470" y1="195" x2="400" y2="250" stroke="#000000" stroke-width="1" stroke-dasharray="4,3"/>
  <line x1="660" y1="195" x2="550" y2="250" stroke="#000000" stroke-width="1" stroke-dasharray="4,3"/>
  <line x1="660" y1="195" x2="850" y2="250" stroke="#000000" stroke-width="1" stroke-dasharray="4,3"/>
  <line x1="660" y1="195" x2="990" y2="250" stroke="#000000" stroke-width="1" stroke-dasharray="4,3"/>

  <rect x="100" y="370" width="200" height="50" rx="6" fill="#ffffff" stroke="#000000" stroke-width="1.5"/>
  <text x="200" y="392" text-anchor="middle" font-size="12" font-weight="bold" fill="#000000">Conftest (OPA/Rego)</text>
  <text x="200" y="408" text-anchor="middle" font-size="9" fill="#555555">22 Policies · CI Pipeline</text>

  <rect x="800" y="370" width="200" height="50" rx="6" fill="#ffffff" stroke="#000000" stroke-width="1.5"/>
  <text x="900" y="392" text-anchor="middle" font-size="12" font-weight="bold" fill="#000000">Gatekeeper (OPA)</text>
  <text x="900" y="408" text-anchor="middle" font-size="9" fill="#555555">4 Policies · K8s Admission</text>

  <line x1="120" y1="315" x2="160" y2="370" stroke="#000000" stroke-width="1" stroke-dasharray="4,3"/>
  <line x1="260" y1="315" x2="220" y2="370" stroke="#000000" stroke-width="1" stroke-dasharray="4,3"/>
  <line x1="400" y1="315" x2="260" y2="370" stroke="#000000" stroke-width="1" stroke-dasharray="4,3"/>
  <line x1="550" y1="315" x2="280" y2="370" stroke="#000000" stroke-width="1" stroke-dasharray="4,3"/>
  <line x1="850" y1="315" x2="870" y2="370" stroke="#000000" stroke-width="1" stroke-dasharray="4,3"/>
  <line x1="990" y1="315" x2="940" y2="370" stroke="#000000" stroke-width="1" stroke-dasharray="4,3"/>

  <rect x="350" y="470" width="500" height="55" rx="8" fill="#f0f0f0" stroke="#000000" stroke-width="2"/>
  <text x="600" y="493" text-anchor="middle" font-size="14" font-weight="bold" fill="#000000">Evidence Store (PostgreSQL + Hash-Chain SHA-256)</text>
  <text x="600" y="512" text-anchor="middle" font-size="10" fill="#555555">Immutable · RBAC · Tamper-Proof Audit Trail · R → DP → Gate → Evidence</text>

  <line x1="200" y1="420" x2="450" y2="470" stroke="#000000" stroke-width="1.5" marker-end="url(#arrowhead)"/>
  <line x1="900" y1="420" x2="750" y2="470" stroke="#000000" stroke-width="1.5" marker-end="url(#arrowhead)"/>
  <line x1="1030" y1="195" x2="1030" y2="450" stroke="#000000" stroke-width="1" stroke-dasharray="4,3"/>
  <line x1="1030" y1="450" x2="850" y2="475" stroke="#000000" stroke-width="1" stroke-dasharray="4,3" marker-end="url(#arrowhead)"/>

  <rect x="40" y="560" width="1120" height="120" rx="8" fill="#fafafa" stroke="#dddddd" stroke-width="1"/>

  <text x="60" y="585" font-size="12" font-weight="bold" fill="#000000">Tech Stack</text>
  <text x="60" y="605" font-size="10" fill="#555555">Python · FastAPI · Docker · Kubernetes · OPA/Rego · Conftest · Gatekeeper · Terraform · Helm · ArgoCD · Prometheus · Grafana · PostgreSQL · Azure AKS</text>

  <text x="60" y="635" font-size="12" font-weight="bold" fill="#000000">Gate Distribution</text>
  <rect x="180" y="625" width="70" height="16" rx="3" fill="#555555"/>
  <text x="215" y="637" text-anchor="middle" font-size="9" font-weight="bold" fill="#ffffff">4 x AUTO</text>
  <rect x="260" y="625" width="80" height="16" rx="3" fill="#000000"/>
  <text x="300" y="637" text-anchor="middle" font-size="9" font-weight="bold" fill="#ffffff">2 x HYBRID</text>
  <text x="360" y="637" font-size="9" fill="#555555">Human Oversight (Art. 14) — Automation Ceiling by Design</text>

  <text x="60" y="665" font-size="12" font-weight="bold" fill="#000000">Traceability</text>
  <text x="140" y="665" font-size="10" fill="#555555">EU AI Act Art. 9-15 → Requirement (R-xx) → Design Principle (DP) → Quality Gate (G-xx) → Rego Policy → Evidence (Audit Trail)</text>

  <defs>
    <marker id="arrowhead" markerWidth="10" markerHeight="7" refX="10" refY="3.5" orient="auto">
      <polygon points="0 0, 10 3.5, 0 7" fill="#000000"/>
    </marker>
  </defs>

  <text x="600" y="695" text-anchor="middle" font-size="9" fill="#999999">Mustafa Demir · M.Sc. Digital Management and Transformation · SRH Fernhochschule · 2026</text>

</svg>
